<svg width="26" height="25" viewBox="0 0 26 25" fill="none" xmlns="http://www.w3.org/2000/svg">
<path d="M9.23349 0.983787C6.71826 1.83884 4.54913 3.46175 3.04471 5.61414C1.54029 7.76653 0.779877 10.335 0.875165 12.9422C0.970453 15.5493 1.91642 18.0579 3.57411 20.0993C5.23181 22.1407 7.51386 23.6074 10.0851 24.2839C12.1696 24.811 14.3536 24.8342 16.4493 24.3514C18.3477 23.9335 20.1029 23.0397 21.543 21.7573C23.0417 20.382 24.1296 18.6323 24.6897 16.6965C25.2984 14.5913 25.4067 12.3774 25.0063 10.2248H13.3006V14.9831H20.0797C19.9443 15.7421 19.6539 16.4664 19.2261 17.1128C18.7983 17.7592 18.2418 18.3144 17.5899 18.7451C16.7621 19.2817 15.8289 19.6427 14.8503 19.8051C13.8689 19.9839 12.8621 19.9839 11.8806 19.8051C10.8859 19.6035 9.94483 19.2012 9.11745 18.6237C7.78827 17.7017 6.79023 16.3918 6.26576 14.881C5.73243 13.3419 5.73243 11.6733 6.26576 10.1343C6.63909 9.05542 7.25625 8.07315 8.07118 7.26076C9.00376 6.314 10.1844 5.63726 11.4837 5.30477C12.7829 4.97229 14.1505 4.99691 15.4364 5.37593C16.4409 5.6781 17.3595 6.20606 18.119 6.91771C18.8833 6.17252 19.6464 5.4254 20.4082 4.67635C20.8015 4.27356 21.2303 3.89004 21.6177 3.47762C20.4585 2.42049 19.0977 1.59791 17.6135 1.05702C14.9107 0.0953168 11.9534 0.0694719 9.23349 0.983787Z" fill="white"/>
<path d="M9.23022 0.984724C11.9499 0.0697871 14.9072 0.0949516 17.6103 1.05603C19.0947 1.60059 20.4548 2.42713 21.6125 3.48819C21.2191 3.90061 20.8042 4.28606 20.403 4.68692C19.6399 5.4334 18.8775 6.17731 18.1157 6.91865C17.3563 6.207 16.4377 5.67904 15.4331 5.37687C14.1477 4.99651 12.7801 4.97047 11.4805 5.3016C10.181 5.63272 8.99955 6.30822 8.06594 7.25399C7.25102 8.06638 6.63386 9.04865 6.26053 10.1275L2.18359 7.03428C3.64289 4.19849 6.16957 2.02933 9.23022 0.984724Z" fill="#E33629"/>
<path d="M1.10519 10.0994C1.32432 9.03522 1.68812 8.0046 2.18687 7.03516L6.2638 10.1361C5.73047 11.6752 5.73047 13.3437 6.2638 14.8828C4.90548 15.9107 3.5465 16.9437 2.18687 17.9818C0.938319 15.5464 0.557534 12.7715 1.10519 10.0994Z" fill="#F8BD00"/>
<path d="M13.2997 10.2227H25.0054C25.4058 12.3752 25.2975 14.5891 24.6888 16.6943C24.1287 18.6301 23.0408 20.3798 21.5421 21.7552C20.2264 20.7492 18.9048 19.7509 17.589 18.7448C18.2413 18.3137 18.7981 17.7579 19.2259 17.1108C19.6538 16.4637 19.9439 15.7386 20.0789 14.979H13.2997C13.2977 13.3949 13.2997 11.8088 13.2997 10.2227Z" fill="#587DBD"/>
<path d="M2.18359 17.9818C3.54323 16.9539 4.90221 15.9209 6.26053 14.8828C6.78604 16.3941 7.7855 17.7041 9.11615 18.6255C9.94611 19.2003 10.8892 19.5994 11.8852 19.7972C12.8667 19.9761 13.8735 19.9761 14.8549 19.7972C15.8335 19.6349 16.7667 19.2739 17.5945 18.7373C18.9102 19.7433 20.2318 20.7416 21.5476 21.7476C20.1077 23.0306 18.3525 23.9251 16.4538 24.3436C14.3582 24.8263 12.1742 24.8032 10.0897 24.2761C8.44099 23.8447 6.90103 23.0843 5.56629 22.0425C4.15354 20.9433 2.99968 19.5582 2.18359 17.9818Z" fill="#319F43"/>
</svg>
