<svg width="25" height="25" viewBox="0 0 25 25" fill="none" xmlns="http://www.w3.org/2000/svg">
<path d="M18.8489 0.316406H5.8961C2.74009 0.316406 0.181641 2.87484 0.181641 6.03082V18.9835C0.181641 22.1395 2.74009 24.6979 5.8961 24.6979H18.8489C22.0049 24.6979 24.5633 22.1395 24.5633 18.9835V6.03082C24.5633 2.87484 22.0049 0.316406 18.8489 0.316406Z" fill="url(#paint0_radial_1116_35383)"/>
<path d="M18.8489 0.316406H5.8961C2.74009 0.316406 0.181641 2.87484 0.181641 6.03082V18.9835C0.181641 22.1395 2.74009 24.6979 5.8961 24.6979H18.8489C22.0049 24.6979 24.5633 22.1395 24.5633 18.9835V6.03082C24.5633 2.87484 22.0049 0.316406 18.8489 0.316406Z" fill="url(#paint1_radial_1116_35383)"/>
<path d="M12.3726 2.98438C9.78606 2.98438 9.46138 2.99571 8.44554 3.0419C7.4316 3.08838 6.73949 3.24886 6.13395 3.48439C5.50745 3.72763 4.9761 4.05307 4.44675 4.5826C3.91693 5.11204 3.59149 5.64339 3.34748 6.26959C3.11128 6.87532 2.95061 7.56772 2.90499 8.58117C2.85956 9.59709 2.84766 9.92186 2.84766 12.5085C2.84766 15.0951 2.85909 15.4187 2.90518 16.4346C2.95185 17.4485 3.11233 18.1406 3.34767 18.7462C3.59111 19.3726 3.91655 19.904 4.44609 20.4333C4.97534 20.9632 5.50669 21.2894 6.13271 21.5326C6.73873 21.7681 7.43094 21.9286 8.44468 21.9751C9.46062 22.0213 9.78501 22.0326 12.3715 22.0326C14.9583 22.0326 15.2819 22.0213 16.2978 21.9751C17.3117 21.9286 18.0046 21.7681 18.6106 21.5326C19.2368 21.2894 19.7674 20.9632 20.2966 20.4333C20.8264 19.904 21.1517 19.3726 21.3958 18.7464C21.6299 18.1406 21.7907 17.4483 21.8383 16.4348C21.8839 15.4189 21.8959 15.0951 21.8959 12.5085C21.8959 9.92186 21.8839 9.59728 21.8383 8.58136C21.7907 7.56743 21.6299 6.87541 21.3958 6.26988C21.1517 5.64339 20.8264 5.11204 20.2966 4.5826C19.7668 4.05287 19.237 3.72744 18.61 3.48448C18.0029 3.24886 17.3104 3.08828 16.2964 3.0419C15.2805 2.99571 14.9571 2.98438 12.3697 2.98438H12.3726ZM11.5182 4.7007C11.7718 4.70032 12.0548 4.7007 12.3726 4.7007C14.9156 4.7007 15.217 4.70984 16.2212 4.75546C17.1498 4.79794 17.6538 4.95309 17.9895 5.08347C18.434 5.25604 18.7509 5.46243 19.0841 5.79587C19.4174 6.12921 19.6237 6.44664 19.7967 6.89113C19.9271 7.22637 20.0825 7.73039 20.1248 8.65898C20.1704 9.663 20.1803 9.96453 20.1803 12.5063C20.1803 15.0481 20.1704 15.3497 20.1248 16.3536C20.0823 17.2822 19.9271 17.7862 19.7967 18.1216C19.6242 18.5661 19.4174 18.8825 19.0841 19.2157C18.7507 19.549 18.4342 19.7553 17.9895 19.928C17.6542 20.0589 17.1498 20.2137 16.2212 20.2562C15.2172 20.3018 14.9156 20.3117 12.3726 20.3117C9.82949 20.3117 9.52805 20.3018 8.52411 20.2562C7.59551 20.2133 7.0915 20.0582 6.75549 19.9278C6.31109 19.7551 5.99356 19.5488 5.66022 19.2155C5.32687 18.8822 5.12058 18.5655 4.94753 18.1208C4.81714 17.7855 4.66181 17.2815 4.61952 16.3529C4.5739 15.3488 4.56476 15.0473 4.56476 12.5039C4.56476 9.96053 4.5739 9.66062 4.61952 8.6566C4.662 7.728 4.81714 7.22399 4.94753 6.88827C5.1202 6.44379 5.32687 6.12635 5.66031 5.79301C5.99375 5.45967 6.31109 5.25328 6.75558 5.08033C7.09131 4.94937 7.59551 4.79461 8.52411 4.75194C9.40271 4.71222 9.7432 4.70032 11.5182 4.69832V4.7007ZM17.4566 6.28207C16.8256 6.28207 16.3137 6.79351 16.3137 7.42457C16.3137 8.05554 16.8256 8.56745 17.4566 8.56745C18.0875 8.56745 18.5995 8.05554 18.5995 7.42457C18.5995 6.7936 18.0875 6.28169 17.4566 6.28169V6.28207ZM12.3726 7.61743C9.67158 7.61743 7.48161 9.80738 7.48161 12.5085C7.48161 15.2096 9.67158 17.3985 12.3726 17.3985C15.0737 17.3985 17.2629 15.2096 17.2629 12.5085C17.2629 9.80748 15.0736 7.61743 12.3724 7.61743H12.3726ZM12.3726 9.33375C14.1259 9.33375 15.5474 10.755 15.5474 12.5085C15.5474 14.2618 14.1259 15.6832 12.3726 15.6832C10.6193 15.6832 9.19794 14.2618 9.19794 12.5085C9.19794 10.755 10.6192 9.33375 12.3726 9.33375Z" fill="white"/>
<defs>
<radialGradient id="paint0_radial_1116_35383" cx="0" cy="0" r="1" gradientUnits="userSpaceOnUse" gradientTransform="translate(6.65803 26.5758) rotate(-90) scale(24.1639 22.4745)">
<stop stop-color="#FFDD55"/>
<stop offset="0.1" stop-color="#FFDD55"/>
<stop offset="0.5" stop-color="#FF543E"/>
<stop offset="1" stop-color="#C837AB"/>
</radialGradient>
<radialGradient id="paint1_radial_1116_35383" cx="0" cy="0" r="1" gradientUnits="userSpaceOnUse" gradientTransform="translate(-3.90239 2.07273) rotate(78.6809) scale(10.8014 44.524)">
<stop stop-color="#3771C8"/>
<stop offset="0.128" stop-color="#3771C8"/>
<stop offset="1" stop-color="#6600FF" stop-opacity="0"/>
</radialGradient>
</defs>
</svg>
