<svg width="26" height="25" viewBox="0 0 26 25" fill="none" xmlns="http://www.w3.org/2000/svg">
<path d="M19.6457 0.316406H6.69297C3.53697 0.316406 0.978516 2.87484 0.978516 6.03082V18.9835C0.978516 22.1395 3.53697 24.6979 6.69297 24.6979H19.6457C22.8018 24.6979 25.3602 22.1395 25.3602 18.9835V6.03082C25.3602 2.87484 22.8018 0.316406 19.6457 0.316406Z" fill="white"/>
<path d="M19.6457 0.316406H6.69297C3.53697 0.316406 0.978516 2.87484 0.978516 6.03082V18.9835C0.978516 22.1395 3.53697 24.6979 6.69297 24.6979H19.6457C22.8018 24.6979 25.3602 22.1395 25.3602 18.9835V6.03082C25.3602 2.87484 22.8018 0.316406 19.6457 0.316406Z" fill="#0A66C2"/>
<path d="M18.5709 21.0507H21.3586C21.4597 21.0507 21.5565 21.0106 21.628 20.9392C21.6994 20.8678 21.7396 20.7709 21.7396 20.6699L21.741 14.78C21.741 11.7016 21.0777 9.33533 17.4801 9.33533C16.1126 9.28448 14.8229 9.98944 14.127 11.1666C14.1236 11.1723 14.1184 11.1768 14.1122 11.1793C14.1061 11.1818 14.0993 11.1822 14.0928 11.1804C14.0864 11.1787 14.0807 11.1749 14.0767 11.1697C14.0726 11.1644 14.0704 11.1579 14.0703 11.1513V10.0005C14.0703 9.89946 14.0302 9.80256 13.9587 9.73111C13.8873 9.65967 13.7904 9.61953 13.6894 9.61953H11.0439C10.9428 9.61953 10.8459 9.65967 10.7745 9.73111C10.703 9.80256 10.6629 9.89946 10.6629 10.0005V20.6693C10.6629 20.7703 10.703 20.8672 10.7745 20.9387C10.8459 21.0101 10.9428 21.0503 11.0439 21.0503H13.8314C13.9324 21.0503 14.0293 21.0101 14.1007 20.9387C14.1722 20.8672 14.2123 20.7703 14.2123 20.6693V15.3956C14.2123 13.9044 14.4952 12.4603 16.3439 12.4603C18.1664 12.4603 18.19 14.1666 18.19 15.4921V20.6698C18.19 20.7708 18.2301 20.8677 18.3016 20.9392C18.373 21.0106 18.4699 21.0507 18.5709 21.0507ZM4.59766 5.99736C4.59766 7.12729 5.52787 8.05702 6.65791 8.05702C7.78766 8.05692 8.7173 7.12662 8.7173 5.99688C8.71711 4.86714 7.78737 3.9375 6.65753 3.9375C5.5274 3.9375 4.59766 4.86743 4.59766 5.99736ZM5.26044 21.0507H8.05167C8.1527 21.0507 8.2496 21.0106 8.32105 20.9392C8.39249 20.8677 8.43263 20.7708 8.43263 20.6698V10.0005C8.43263 9.89946 8.39249 9.80256 8.32105 9.73111C8.2496 9.65967 8.1527 9.61953 8.05167 9.61953H5.26044C5.1594 9.61953 5.0625 9.65967 4.99106 9.73111C4.91961 9.80256 4.87947 9.89946 4.87947 10.0005V20.6698C4.87947 20.7708 4.91961 20.8677 4.99106 20.9392C5.0625 21.0106 5.1594 21.0507 5.26044 21.0507Z" fill="white"/>
</svg>
